<svg width="18" height="15" viewBox="0 0 18 15" fill="none" xmlns="http://www.w3.org/2000/svg">
<path fill-rule="evenodd" clip-rule="evenodd" d="M10.29 14.7076C10.1 14.5076 10 14.2576 10 13.9976C10 13.7376 10.1 13.4876 10.29 13.2876L14.59 8.99762L0.999998 8.99762C0.449999 8.99762 -1.57722e-06 8.54762 -1.60126e-06 7.99762C-1.6253e-06 7.44762 0.449999 6.99762 0.999998 6.99762L14.59 6.99762L10.29 2.70762C9.9 2.31762 9.9 1.67762 10.29 1.28762C10.68 0.897618 11.32 0.897617 11.71 1.28762L17.71 7.28762C17.8 7.37762 17.87 7.48762 17.92 7.60762C17.94 7.65762 17.96 7.69762 17.96 7.74762C18.01 7.90762 18.01 8.08762 17.96 8.24762C17.96 8.29762 17.94 8.33762 17.92 8.38762C17.87 8.50762 17.8 8.61762 17.71 8.70762L11.71 14.7076C11.32 15.0976 10.68 15.0976 10.29 14.7076Z" fill="#313037"/>
</svg>
